<svg xmlns="http://www.w3.org/2000/svg" width="65" height="65" fill="none"><g stroke="#333"><path d="M35.673 8.125H24.375c-5.107 0-7.66 0-9.247 1.586-1.586 1.587-1.586 4.14-1.586 9.247v27.084c0 5.106 0 7.66 1.586 9.246 1.587 1.587 4.14 1.587 9.247 1.587h16.25c5.107 0 7.66 0 9.247-1.587 1.586-1.586 1.586-4.14 1.586-9.246V23.91c0-1.107 0-1.66-.206-2.158s-.597-.889-1.38-1.672L39.503 9.712c-.782-.783-1.174-1.175-1.672-1.38-.497-.207-1.05-.207-2.158-.207Z"/><path stroke-linecap="round" d="M24.375 35.208h16.25M24.375 46.042h10.833"/><path d="M35.208 8.125v10.833c0 2.554 0 3.83.794 4.624.793.793 2.07.793 4.623.793h10.833"/></g></svg>