<svg xmlns="http://www.w3.org/2000/svg" width="31" height="30" fill="none"><g stroke="#333"><path d="M16.897 4.396h-5.058c-2.287 0-3.43 0-4.14.714-.71.715-.71 1.865-.71 4.165V21.47c0 2.3 0 3.45.71 4.164.71.714 1.853.714 4.14.714h7.275c2.286 0 3.429 0 4.14-.714.71-.715.71-1.864.71-4.164v-9.966c0-.499 0-.748-.093-.972-.092-.224-.267-.4-.618-.753l-4.642-4.67c-.35-.352-.525-.528-.748-.621-.223-.093-.47-.093-.966-.093Z"/><path stroke-linecap="round" d="M11.839 16.593h7.274M11.839 21.471h4.85"/><path d="M16.689 4.396v4.879c0 1.15 0 1.724.355 2.082.355.357.926.357 2.07.357h4.85"/></g></svg>