<svg xmlns="http://www.w3.org/2000/svg" width="65" height="65" fill="none"><g stroke="#333" stroke-linecap="round" stroke-linejoin="round"><path d="M31.951 20.313a25.589 25.589 0 0 1 2.632-3.955c.994-1.23.85-3.028-.268-4.146l-5.19-5.19c-1.334-1.333-3.514-1.209-4.726.238-12.208 14.573-12.208 35.905 0 50.479 1.212 1.446 3.388 1.575 4.722.24l4.627-4.626c1.69-1.689 1.829-3.483.835-4.713a25.586 25.586 0 0 1-2.631-3.955 5.208 5.208 0 0 0-4.594-2.724h-4.442a33.214 33.214 0 0 1 0-18.924h4.442a5.212 5.212 0 0 0 4.593-2.723v-.002ZM35.72 33.445l-3.9 3.877m0 0 3.9 3.877m-3.9-3.877h17.936m-3.9-6.815 3.9-3.877m0 0-3.9-3.877m3.9 3.877H31.82"/></g></svg>