<svg xmlns="http://www.w3.org/2000/svg" width="30" height="31" fill="none"><g stroke="#333" stroke-linecap="round" stroke-linejoin="round"><path d="M14.872 9.984c.337-.63.732-1.225 1.178-1.78.445-.555.38-1.364-.12-1.868l-2.323-2.337a1.429 1.429 0 0 0-2.116.107c-5.465 6.563-5.465 16.17 0 22.732.543.651 1.517.71 2.114.108l2.072-2.083c.756-.76.818-1.569.373-2.122a11.528 11.528 0 0 1-1.178-1.782 2.321 2.321 0 0 0-2.056-1.226h-1.989a15.043 15.043 0 0 1 0-8.522h1.989a2.323 2.323 0 0 0 2.056-1.226v-.001ZM16.56 15.898l-1.746 1.745m0 0 1.745 1.746m-1.746-1.745h8.03m-1.746-3.07 1.746-1.746m0 0-1.746-1.745m1.746 1.745h-8.03"/></g></svg>