<svg xmlns="http://www.w3.org/2000/svg" width="30" height="30" fill="none"><g stroke="#333"><path d="M17.498 5.616H12.04c-3.858 0-5.787 0-6.985 1.224-1.199 1.225-1.199 3.197-1.199 7.139v2.788c0 3.942 0 5.913 1.199 7.138 1.198 1.225 3.127 1.225 6.985 1.225h5.457c3.858 0 5.787 0 6.985-1.225 1.199-1.225 1.199-3.196 1.199-7.138v-2.788c0-3.942 0-5.914-1.199-7.139-1.198-1.224-3.127-1.224-6.985-1.224Z"/><path stroke-linecap="round" d="M8.707 10.494h3.637"/><path d="M18.407 18.252v-.88c0-.942 0-1.413.293-1.706.293-.293.764-.293 1.707-.293h3.275c.943 0 1.414 0 1.707.293.293.293.293.764.293 1.707v.878c0 .943 0 1.415-.293 1.708-.293.293-.764.293-1.707.293h-3.275c-.943 0-1.414 0-1.707-.293-.293-.293-.293-.765-.293-1.707Z"/></g></svg>