<svg xmlns="http://www.w3.org/2000/svg" width="65" height="65" fill="none"><g stroke="#333"><path d="M38.594 10.833H26.406c-8.618 0-12.926 0-15.604 2.72-2.677 2.72-2.677 7.097-2.677 15.852v6.19c0 8.755 0 13.132 2.677 15.852 2.678 2.72 6.986 2.72 15.604 2.72h12.188c8.618 0 12.926 0 15.604-2.72 2.677-2.72 2.677-7.097 2.677-15.852v-6.19c0-8.755 0-13.132-2.677-15.852-2.678-2.72-6.986-2.72-15.604-2.72Z"/><path stroke-linecap="round" d="M18.958 21.667h8.125"/><path d="M40.625 41.333V34.5c0-.943 0-1.414.293-1.707.293-.293.764-.293 1.707-.293h12.25c.943 0 1.414 0 1.707.293.293.293.293.764.293 1.707v6.833c0 .943 0 1.415-.293 1.708-.293.292-.764.292-1.707.292h-12.25c-.943 0-1.414 0-1.707-.292-.293-.293-.293-.765-.293-1.708Z"/></g></svg>